<svg xmlns="http://www.w3.org/2000/svg" viewBox="0 0 398.18 90.59"><defs><style>.cls-1{fill:#fff;}</style></defs><title>Asset 1</title><g id="Layer_2" data-name="Layer 2"><g id="Layer_1-2" data-name="Layer 1"><path class="cls-1" d="M14.65,65.22c.1,5.66,2,13,10.47,13,5.79,0,9.61-3.34,10.76-9.35C37.12,62.4,35.33,57,25.83,49.46,12.58,39,8,31.14,10,19.56,11.93,8.41,19.75,0,33.91,0c22.15,0,24,17.49,23.45,24.05H42.83c0-3.47-.73-11.72-9.33-11.72-5.3,0-8.25,3.18-9.09,8.13-.88,5.2.63,9,10.59,16.51C50.28,48.62,53.69,57.64,50.76,71,48.39,81.77,40.17,90.59,25.17,90.59,3.08,90.59-.75,75.62.11,65.22Z"/><path class="cls-1" d="M112.34,56.91C108.86,74.34,100.49,90.15,82,90.15c-17.43,0-24-13.14-19.35-35.7,4.14-20.7,15.44-33.4,30-33.4C112,21.05,116.39,36.74,112.34,56.91Zm-34.88-.72c-3.08,15.21-1,21.63,5.87,21.63,6.45,0,11.1-8.3,14.11-22,2.62-12.06,3.22-22.27-5.7-22.27C84.54,33.51,79.65,45.31,77.46,56.19Z"/><path class="cls-1" d="M170.6,56.91c-3.48,17.43-11.86,33.24-30.31,33.24-17.44,0-24-13.14-19.35-35.7,4.13-20.7,15.44-33.4,30-33.4C170.27,21.05,174.64,36.74,170.6,56.91Zm-34.88-.72c-3.09,15.21-1,21.63,5.87,21.63,6.45,0,11.1-8.3,14.11-22,2.62-12.06,3.22-22.27-5.71-22.27C142.8,33.51,137.91,45.31,135.72,56.19Z"/><path class="cls-1" d="M230.68,47c-6.42,28.58-13.45,43.1-31.17,43.1-15.36,0-24.48-10.4-17-45.63C188.17,18,197.36,2.93,213.17,2.93,232.91,2.93,237,18.7,230.68,47Zm-33.37-2.47c-5.2,24.82-4.51,33.49,3.15,33.49,7,0,10.86-8.87,15.77-32.47C220.78,24,221,15,212.51,15,206.52,15,202.06,22,197.31,44.56Z"/><path class="cls-1" d="M296,49.23c-6.23,29-17.94,41.36-34.12,41.36-21.56,0-26.54-19.11-19.91-49.27C247.74,15.08,259.15,0,275.7,0,296.05,0,303.14,15.83,296,49.23Zm-38.92-6c-4.26,19.8-4.51,34.42,5.76,34.42,8,0,12.95-7.91,17.93-30.07,4.5-19.88,5.81-34.55-5.51-34.55C266.58,13,261.17,24.23,257.09,43.24Z"/><path class="cls-1" d="M308.82,42.94c3-13.78,3.76-18.14,4.25-20.85H327.8c-.14,1.5-.69,4.85-1.13,7.09,3.24-4.8,8.16-8.13,15.81-8.13,10.45,0,16.44,6.92,13.21,22.31L345.88,89.1h-15l9.45-44.62c1.5-7,.13-10.84-5.67-10.84s-9.52,3.52-11.75,14.06l-8.8,41.4H299Z"/><path class="cls-1" d="M364,89.1l4-18.61H383l-4,18.61Zm7.68-31.26,7.25-40.9,3.37-15.55h15.93L394.82,17,384.6,57.84Z"/></g></g></svg>